<svg xmlns="http://www.w3.org/2000/svg" xmlns:xlink="http://www.w3.org/1999/xlink" width="16" height="16" viewBox="0 0 16 16">
  <defs>
    <clipPath id="clip-path">
      <path id="Path_7" data-name="Path 7" d="M0-33.649H31.22V-56.965H0Z" transform="translate(0 56.965)" fill="#fff"/>
    </clipPath>
    <clipPath id="clip-Favicon">
      <rect width="16" height="16"/>
    </clipPath>
  </defs>
  <g id="Favicon" clip-path="url(#clip-Favicon)">
    <rect id="Rectangle_1" data-name="Rectangle 1" width="16" height="16" rx="2" fill="#8f8c70"/>
    <g id="Group_1" data-name="Group 1" transform="translate(-3.064 51.526)">
      <g id="Group_5" data-name="Group 5" transform="translate(0 -56.965)" clip-path="url(#clip-path)">
        <g id="Group_2" data-name="Group 2" transform="translate(29.573 16.334)">
          <path id="Path_4" data-name="Path 4" d="M-2.026-.038A6.624,6.624,0,0,0-2.97-.054c-.474.33-.576.691-.333.73A5.385,5.385,0,0,0-2.04.7c.1-.008.253-.237.256-.367s-.14-.362-.242-.375" transform="translate(3.43 0.064)" fill="#fff"/>
        </g>
        <g id="Group_3" data-name="Group 3" transform="translate(9.888 18.896)">
          <path id="Path_5" data-name="Path 5" d="M0-1.8l.114.076L.957-2.963.842-3.04C.48-2.679.05-2.363,0-1.8" transform="translate(0 3.04)" fill="#fff"/>
        </g>
        <g id="Group_4" data-name="Group 4" transform="translate(0 0)">
          <path id="Path_6" data-name="Path 6" d="M-40.571-23.516a19.023,19.023,0,0,1-1.9.086c-1.032.011-2.207.2-3.075-.492a2.55,2.55,0,0,0-.807-.472,6,6,0,0,0-2.609.362,1.512,1.512,0,0,1-1.262-.376,2.136,2.136,0,0,0-1.512-.042l-1.886.458-.235.058c-.132.024-.327.108-.411,0-.128-.348.115-.8-.19-1.116-.349-.185-.661.233-.915.389-.32.212-1.367.885-1.576.376a1.706,1.706,0,0,1,.269-1.135c.306,0,.612,0,.918.027a.171.171,0,0,0,.187-.181.171.171,0,0,0-.182-.159q-.395.027-.786.06c.086-.154.17-.307.236-.458.264-.515.526-1.033.77-1.559a.127.127,0,0,0-.222-.121c-.31.492-.6.994-.894,1.5-.126.231-.268.456-.4.687q-.472.044-.943.093a65,65,0,0,1,3.892-6.7,47.187,47.187,0,0,1,3.274-4.2c.75-.882,1.525-1.743,2.286-2.616a.4.4,0,0,0-.045-.652c-.237-.2-.42-.1-.574.089-.228.281-.427.586-.652.87-.884,1.118-1.825,2.2-2.65,3.357A57.458,57.458,0,0,1-56.993-30.1c-.64.7-1.3,1.39-1.94,2.088-.587.637-1.151,1.3-1.755,1.917-.285.293-.575.582-.866.87a24.973,24.973,0,0,1-6.669-.846.362.362,0,1,0-.154.706,39.566,39.566,0,0,0,5.545.433c.334.006.669,0,1-.022-.453.446-.908.89-1.355,1.342-.464.47-.419.849.1,1.156.234.138.366.1.469-.179a2.907,2.907,0,0,1,.449-.827c.448-.543.939-1.049,1.4-1.58.756-.079,1.511-.184,2.266-.265q-.373.727-.731,1.46-.861,1.772-1.658,3.574c-.413.931-.786,1.88-1.166,2.825a.585.585,0,0,0,.183.748.607.607,0,0,0,.834.065,3.511,3.511,0,0,0,.641-.584c.387-.494.738-1.015,1.1-1.526l-.142-.133c-.757.4-1.064,1.421-2.1,1.649a6.493,6.493,0,0,1,.149-.789,46.978,46.978,0,0,1,2.58-5.9q.351-.718.714-1.429c.309-.029.617-.051.926-.065a2.387,2.387,0,0,0-.24.737.821.821,0,0,0,.486.952,1.39,1.39,0,0,0,.983-.179,5.33,5.33,0,0,0,1.1-.772,1,1,0,0,1,.153-.1.2.2,0,0,1,.057-.022.318.318,0,0,1,.031.107c.039.618-.1,1.281.8,1l2.115-.528a1.852,1.852,0,0,1,1.327.047c.125.072.247.176.4.269a2.672,2.672,0,0,0,2.019.135,2.142,2.142,0,0,1,1.676.03,7.524,7.524,0,0,0,.8.573,3.958,3.958,0,0,0,2.038.4c.974-.024,1.943.018,2.93-.087a.337.337,0,0,0,.3-.372.337.337,0,0,0-.372-.3M-58.915-25.44c-.55.083-1.1.14-1.656.175,1.214-1.416,2.414-2.845,3.633-4.257.583-.676,1.2-1.324,1.8-1.985-.332.693-.726,1.337-1.1,1.994-.474.837-.941,1.679-1.39,2.53q-.392.743-.778,1.488l-.513.055" transform="translate(68.683 39.811)" fill="#fff"/>
        </g>
      </g>
    </g>
  </g>
</svg>
